<?xml version="1.0" standalone="no"?><svg xmlns="http://www.w3.org/2000/svg" viewBox="0 0 1440 320"><path fill="#ffffff" fill-opacity="1" d="M0,96L20,106.7C40,117,80,139,120,149.3C160,160,200,160,240,181.3C280,203,320,245,360,229.3C400,213,440,139,480,144C520,149,560,235,600,256C640,277,680,235,720,234.7C760,235,800,277,840,282.7C880,288,920,256,960,229.3C1000,203,1040,181,1080,181.3C1120,181,1160,203,1200,176C1240,149,1280,75,1320,53.3C1360,32,1400,64,1420,80L1440,96L1440,320L1420,320C1400,320,1360,320,1320,320C1280,320,1240,320,1200,320C1160,320,1120,320,1080,320C1040,320,1000,320,960,320C920,320,880,320,840,320C800,320,760,320,720,320C680,320,640,320,600,320C560,320,520,320,480,320C440,320,400,320,360,320C320,320,280,320,240,320C200,320,160,320,120,320C80,320,40,320,20,320L0,320Z"></path></svg>